<svg width="28" height="25" viewBox="0 0 28 25" fill="none" xmlns="http://www.w3.org/2000/svg">
<path d="M2.77228 17.3387C2.77228 16.6706 2.15168 16.129 1.38614 16.129C0.620602 16.129 0 16.6706 0 17.3387H2.77228ZM28 17.3387C28 16.6706 27.3794 16.129 26.6139 16.129C25.8483 16.129 25.2277 16.6706 25.2277 17.3387H28ZM12.907 18.2076C12.4363 18.7344 12.5438 19.4945 13.1474 19.9055C13.751 20.3163 14.6221 20.2224 15.093 19.6956L12.907 18.2076ZM22.3009 11.6311C22.7717 11.1044 22.6641 10.3442 22.0605 9.93323C21.4569 9.52242 20.5858 9.61629 20.1149 10.1431L22.3009 11.6311ZM12.907 19.6956C13.3779 20.2224 14.249 20.3163 14.8526 19.9055C15.4562 19.4945 15.5637 18.7344 15.093 18.2076L12.907 19.6956ZM7.88506 10.1431C7.41422 9.61629 6.54318 9.52242 5.93957 9.93323C5.33593 10.3442 5.22827 11.1044 5.6991 11.6311L7.88506 10.1431ZM12.6139 18.9516C12.6139 19.6197 13.2345 20.1613 14 20.1613C14.7655 20.1613 15.3861 19.6197 15.3861 18.9516H12.6139ZM15.3861 1.20968C15.3861 0.541597 14.7655 0 14 0C13.2345 0 12.6139 0.541597 12.6139 1.20968H15.3861ZM0 17.3387V18.9516H2.77228V17.3387H0ZM0 18.9516C0 22.2631 3.00805 25 6.79208 25V22.5806C4.60488 22.5806 2.77228 20.985 2.77228 18.9516H0ZM6.79208 25H21.2079V22.5806H6.79208V25ZM21.2079 25C24.9919 25 28 22.2631 28 18.9516H25.2277C25.2277 20.985 23.3951 22.5806 21.2079 22.5806V25ZM28 18.9516V17.3387H25.2277V18.9516H28ZM15.093 19.6956L22.3009 11.6311L20.1149 10.1431L12.907 18.2076L15.093 19.6956ZM15.093 18.2076L7.88506 10.1431L5.6991 11.6311L12.907 19.6956L15.093 18.2076ZM15.3861 18.9516V1.20968H12.6139V18.9516H15.3861Z" fill="#0286F7"/>
</svg>
