<svg width="19" height="18" viewBox="0 0 19 18" fill="none" xmlns="http://www.w3.org/2000/svg">
<path id="Vector" fill-rule="evenodd" clip-rule="evenodd" d="M14.5495 0C14.9835 0 15.3997 0.172399 15.7066 0.479283L18.0207 2.79344C18.3276 3.10033 18.5 3.51654 18.5 3.95053V15.5455C18.5 16.9011 17.4011 18 16.0455 18H2.95455C1.59894 18 0.5 16.9011 0.5 15.5455V2.45455C0.5 1.09894 1.59894 0 2.95455 0H14.5495ZM2.95455 1.63636C2.50268 1.63636 2.13636 2.00268 2.13636 2.45455V15.5455C2.13636 15.9973 2.50268 16.3636 2.95455 16.3636H3.77273V11.4545C3.77273 10.0989 4.87167 9 6.22727 9H12.7727C14.1284 9 15.2273 10.0989 15.2273 11.4545V16.3636H16.0455C16.4973 16.3636 16.8636 15.9973 16.8636 15.5455V4.76872C16.8636 4.33472 16.6912 3.91851 16.3843 3.61163L14.8884 2.11565C14.5815 1.80876 14.1653 1.63636 13.7313 1.63636H13.5909V3.27273C13.5909 4.62833 12.492 5.72727 11.1364 5.72727H7.86364C6.50803 5.72727 5.40909 4.62833 5.40909 3.27273V1.63636H2.95455ZM13.5909 16.3636V11.4545C13.5909 11.0027 13.2246 10.6364 12.7727 10.6364H6.22727C5.77541 10.6364 5.40909 11.0027 5.40909 11.4545V16.3636H13.5909ZM7.04545 1.63636H11.9545V3.27273C11.9545 3.72459 11.5882 4.09091 11.1364 4.09091H7.86364C7.41177 4.09091 7.04545 3.72459 7.04545 3.27273V1.63636Z" fill="white"/>
</svg>
