<svg width="17" height="16" viewBox="0 0 17 16" fill="none" xmlns="http://www.w3.org/2000/svg">
<g id="fluent:add-16-filled">
<path id="Vector" d="M9.26855 2.75C9.26855 2.55109 9.18954 2.36032 9.04888 2.21967C8.90823 2.07902 8.71747 2 8.51855 2C8.31964 2 8.12888 2.07902 7.98822 2.21967C7.84757 2.36032 7.76855 2.55109 7.76855 2.75V7H3.51855C3.31964 7 3.12888 7.07902 2.98822 7.21967C2.84757 7.36032 2.76855 7.55109 2.76855 7.75C2.76855 7.94891 2.84757 8.13968 2.98822 8.28033C3.12888 8.42098 3.31964 8.5 3.51855 8.5H7.76855V12.75C7.76855 12.9489 7.84757 13.1397 7.98822 13.2803C8.12888 13.421 8.31964 13.5 8.51855 13.5C8.71747 13.5 8.90823 13.421 9.04888 13.2803C9.18954 13.1397 9.26855 12.9489 9.26855 12.75V8.5H13.5186C13.7175 8.5 13.9082 8.42098 14.0489 8.28033C14.1895 8.13968 14.2686 7.94891 14.2686 7.75C14.2686 7.55109 14.1895 7.36032 14.0489 7.21967C13.9082 7.07902 13.7175 7 13.5186 7H9.26855V2.75Z" fill="white"/>
</g>
</svg>
