<svg width="25" height="24" viewBox="0 0 25 24" fill="none" xmlns="http://www.w3.org/2000/svg">
<path d="M11.2012 4H4.20117C3.67074 4 3.16203 4.21071 2.78696 4.58579C2.41189 4.96086 2.20117 5.46957 2.20117 6V20C2.20117 20.5304 2.41189 21.0391 2.78696 21.4142C3.16203 21.7893 3.67074 22 4.20117 22H18.2012C18.7316 22 19.2403 21.7893 19.6154 21.4142C19.9905 21.0391 20.2012 20.5304 20.2012 20V13" stroke="#0286F7" stroke-width="2" stroke-linecap="round" stroke-linejoin="round"/>
<path d="M18.7012 2.50023C19.099 2.1024 19.6386 1.87891 20.2012 1.87891C20.7638 1.87891 21.3033 2.1024 21.7012 2.50023C22.099 2.89805 22.3225 3.43762 22.3225 4.00023C22.3225 4.56284 22.099 5.1024 21.7012 5.50023L12.2012 15.0002L8.20117 16.0002L9.20117 12.0002L18.7012 2.50023Z" stroke="#0286F7" stroke-width="2" stroke-linecap="round" stroke-linejoin="round"/>
</svg>
