<svg width="20" height="20" viewBox="0 0 20 20" fill="none" xmlns="http://www.w3.org/2000/svg">
<path fill-rule="evenodd" clip-rule="evenodd" d="M6 1C6 0.44772 5.55228 0 5 0C4.44772 0 4 0.44772 4 1V2.10002C1.71776 2.56329 0 4.58104 0 7V15C0 17.7614 2.23858 20 5 20H15C17.7614 20 20 17.7614 20 15V7C20 4.58104 18.2822 2.56329 16 2.10002V1C16 0.44772 15.5523 0 15 0C14.4477 0 14 0.44772 14 1V2H6V1ZM18 8H2V15C2 16.6569 3.34315 18 5 18H15C16.6569 18 18 16.6569 18 15V8ZM2.17071 6C2.58254 4.83481 3.69378 4 5 4H15C16.3062 4 17.4175 4.83481 17.8293 6H2.17071Z" fill="black"/>
</svg>
