<svg width="23" height="18" viewBox="0 0 23 18" fill="none" xmlns="http://www.w3.org/2000/svg">
<path d="M1 10.1429V14.7143C1 15.9767 2.04463 17 3.33333 17H15M19.6667 17C20.9553 17 22 15.9767 22 14.7143V5.57143C22 4.30906 20.9553 3.28571 19.6667 3.28571H16.75C16.1057 3.28571 15.5833 2.77403 15.5833 2.14286C15.5833 1.51168 15.061 1 14.4167 1H8.58333C7.93898 1 7.41667 1.51168 7.41667 2.14286C7.41667 2.77403 6.89435 3.28571 6.25 3.28571H3.33333C2.04463 3.28571 1 4.30906 1 5.57143M15 10.1429C15 12.0365 13.433 13.5714 11.5 13.5714C9.56695 13.5714 8 12.0365 8 10.1429C8 8.24926 9.56695 6.71429 11.5 6.71429" stroke="black" stroke-width="1.5" stroke-linecap="round"/>
</svg>
