<svg width="26" height="26" viewBox="0 0 26 26" fill="none" xmlns="http://www.w3.org/2000/svg">
<path d="M12.987 0C5.811 0 0 5.824 0 13C0 20.176 5.811 26 12.987 26C20.176 26 26 20.176 26 13C26 5.824 20.176 0 12.987 0ZM21.996 7.8H18.161C17.745 6.175 17.147 4.615 16.367 3.172C18.7383 3.9884 20.7365 5.63124 21.996 7.8ZM13 2.652C14.092 4.22748 14.9299 5.96463 15.483 7.8H10.517C11.0701 5.96463 11.908 4.22748 13 2.652ZM2.938 15.6C2.71933 14.7504 2.60581 13.8772 2.6 13C2.6 12.103 2.73 11.232 2.938 10.4H7.332C7.21873 11.2622 7.15796 12.1304 7.15 13C7.15 13.884 7.228 14.742 7.332 15.6H2.938ZM4.004 18.2H7.839C8.255 19.825 8.853 21.385 9.633 22.828C7.25919 22.016 5.25963 20.372 4.004 18.2ZM7.839 7.8H4.004C5.25963 5.62797 7.25919 3.98399 9.633 3.172C8.84835 4.63566 8.24587 6.1899 7.839 7.8ZM13 23.348C11.908 21.7725 11.0701 20.0354 10.517 18.2H15.483C14.9299 20.0354 14.092 21.7725 13 23.348ZM16.042 15.6H9.958C9.82958 14.7391 9.76009 13.8704 9.75 13C9.75 12.116 9.841 11.245 9.958 10.4H16.042C16.159 11.245 16.25 12.116 16.25 13C16.25 13.884 16.159 14.742 16.042 15.6ZM16.367 22.828C17.1516 21.3643 17.7541 19.8101 18.161 18.2H21.996C20.7365 20.3688 18.7383 22.0116 16.367 22.828ZM18.668 15.6C18.772 14.742 18.85 13.884 18.85 13C18.85 12.116 18.772 11.258 18.668 10.4H23.062C23.27 11.232 23.4 12.103 23.4 13C23.4 13.897 23.27 14.768 23.062 15.6H18.668Z" fill="#B0B0B0"/>
</svg>
