<svg width="48" height="49" viewBox="0 0 48 49" fill="none" xmlns="http://www.w3.org/2000/svg">
<path d="M48 24.7567C48 20.01 46.5924 15.3698 43.9553 11.423C41.3181 7.47625 37.5698 4.40011 33.1844 2.58361C28.799 0.767102 23.9734 0.291822 19.3178 1.21787C14.6623 2.14391 10.3859 4.42969 7.02944 7.78615C3.67298 11.1426 1.3872 15.419 0.461153 20.0745C-0.464892 24.7301 0.0103881 29.5557 1.82689 33.9411C3.64339 38.3265 6.71953 42.0748 10.6663 44.712C14.6131 47.3491 19.2532 48.7567 24 48.7567V43.7346C20.2465 43.7346 16.5773 42.6216 13.4565 40.5362C10.3356 38.4509 7.90311 35.487 6.46672 32.0192C5.03033 28.5515 4.6545 24.7357 5.38677 21.0543C6.11904 17.373 7.9265 13.9914 10.5806 11.3373C13.2347 8.68322 16.6162 6.87575 20.2976 6.14348C23.9789 5.41122 27.7948 5.78704 31.2625 7.22343C34.7303 8.65983 37.6942 11.0923 39.7795 14.2132C41.8648 17.3341 42.9779 21.0032 42.9779 24.7567H48Z" fill="#CCCCCC"/>
</svg>
