<svg width="58" height="58" viewBox="0 0 58 58" fill="none" xmlns="http://www.w3.org/2000/svg">
<path d="M0.875 29C0.875 32.6934 1.60247 36.3507 3.01589 39.763C4.4293 43.1753 6.50097 46.2757 9.11262 48.8874C11.7243 51.499 14.8247 53.5707 18.237 54.9841C21.6493 56.3975 25.3066 57.125 29 57.125C32.6934 57.125 36.3507 56.3975 39.763 54.9841C43.1753 53.5707 46.2757 51.499 48.8874 48.8874C51.499 46.2757 53.5707 43.1753 54.9841 39.763C56.3975 36.3507 57.125 32.6934 57.125 29C57.125 25.3066 56.3975 21.6493 54.9841 18.237C53.5707 14.8247 51.499 11.7243 48.8874 9.11262C46.2757 6.50097 43.1753 4.4293 39.763 3.01589C36.3507 1.60247 32.6934 0.875 29 0.875C25.3066 0.875 21.6493 1.60247 18.237 3.01589C14.8247 4.4293 11.7243 6.50097 9.11262 9.11262C6.50097 11.7243 4.4293 14.8247 3.01589 18.237C1.60247 21.6493 0.875 25.3066 0.875 29Z" fill="#BBE4FF"/>
<path d="M41.375 40.25C39.875 40.25 38.375 39.5 37.25 38.375L33.125 33.125H24.5L22.25 36.875C21.125 38.75 19.25 40.25 17 40.25C13.625 40.25 11 37.625 11 34.25V33.5V32.75L12.5 23C12.875 18.875 15.875 15.875 20 15.875C21.875 15.875 24.125 16.625 25.25 18.125C26.75 18.125 30.5 17.75 32.75 18.125C34.25 16.625 36.125 16.25 38 16.25C41 16.25 43.625 18.125 44.75 21.125V21.875L47 32.375C47 32.75 47.375 33.5 47.375 34.25C47.375 37.25 44.75 40.25 41.375 40.25Z" fill="#0099FF"/>
<path d="M41 26C40.25 26 39.875 25.25 39.875 24.875C39.875 24.5 40.25 23.75 41 23.75C41.75 23.75 42.125 24.5 42.125 24.875C42.125 25.25 41.75 26 41 26ZM34.625 26C33.875 26 33.5 25.25 33.5 24.875C33.5 24.5 33.875 23.75 34.625 23.75C35.375 23.75 35.75 24.5 35.75 24.875C35.75 25.25 35.375 26 34.625 26ZM37.625 29.375C37.25 29.375 36.5 29 36.5 28.25C36.5 27.5 36.875 27.125 37.625 27.125C38.375 27.125 38.75 27.875 38.75 28.25C38.75 28.625 38.375 29.375 37.625 29.375ZM37.625 22.625C37.25 22.625 36.5 22.25 36.5 21.5C36.5 20.75 36.875 20.375 37.625 20.375C38.375 20.375 38.75 21.125 38.75 21.5C38.75 21.875 38.375 22.625 37.625 22.625ZM19.25 23.375H16.25V25.25H19.25V28.25H21.125V25.25H24.125V23.375H21.125V20.375H19.25V23.375Z" fill="white"/>
</svg>
