<svg width="21" height="21" viewBox="0 0 21 21" fill="none" xmlns="http://www.w3.org/2000/svg">
<path d="M10.3945 0.46875C13.1101 0.46875 13.4511 0.480261 14.5176 0.52832C16.1424 0.602076 17.57 0.998344 18.7158 2.1377C19.8617 3.27728 20.2608 4.69733 20.335 6.31348C20.3833 7.37422 20.3945 7.71329 20.3945 10.4141C20.3945 13.1147 20.3833 13.4542 20.335 14.5146C20.2608 16.1308 19.8617 17.5508 18.7158 18.6904C17.57 19.8299 16.1425 20.226 14.5176 20.2998C13.4511 20.3479 13.1101 20.3594 10.3945 20.3594C7.67893 20.3594 7.33793 20.3479 6.27148 20.2998C4.64655 20.226 3.21905 19.8299 2.07324 18.6904C0.927409 17.5508 0.528268 16.1308 0.454102 14.5146C0.405786 13.4542 0.394531 13.1147 0.394531 10.4141C0.394532 7.71329 0.405774 7.37422 0.454102 6.31348C0.528268 4.69733 0.927409 3.27728 2.07324 2.1377C3.21902 0.998344 4.64663 0.602076 6.27148 0.52832C7.33792 0.480261 7.67894 0.46875 10.3945 0.46875ZM10.3936 2.26074C7.72364 2.26074 7.40669 2.27029 6.35254 2.31836C5.2143 2.36977 4.15814 2.59726 3.3457 3.40527C2.53339 4.2133 2.30558 5.26351 2.25391 6.39551C2.20557 7.44389 2.19531 7.75892 2.19531 10.4141C2.19531 13.0695 2.20557 13.3852 2.25391 14.4336C2.30561 15.5655 2.53334 16.6159 3.3457 17.4238C4.15814 18.2318 5.21431 18.4584 6.35254 18.5098C7.40669 18.5578 7.72364 18.5684 10.3936 18.5684C13.0636 18.5684 13.3804 18.5578 14.4346 18.5098C15.5728 18.4584 16.6289 18.2318 17.4414 17.4238C18.2538 16.6159 18.4815 15.5656 18.5332 14.4336C18.5815 13.3852 18.5918 13.0695 18.5918 10.4141C18.5918 7.75892 18.5815 7.44389 18.5332 6.39551C18.4815 5.26347 18.2538 4.21331 17.4414 3.40527C16.6289 2.59722 15.5729 2.36975 14.4346 2.31836C13.3804 2.27029 13.0636 2.26074 10.3936 2.26074ZM10.3926 5.30664C13.2284 5.30664 15.5273 7.59369 15.5273 10.4141C15.5271 13.2342 13.2283 15.5205 10.3926 15.5205C7.55699 15.5204 5.25804 13.2342 5.25781 10.4141C5.25781 7.59376 7.55685 5.30676 10.3926 5.30664ZM10.3916 7.09863C8.55092 7.0988 7.05859 8.58337 7.05859 10.4141C7.05874 12.2446 8.55101 13.7283 10.3916 13.7285C12.2323 13.7285 13.7254 12.2447 13.7256 10.4141C13.7256 8.58327 12.2324 7.09863 10.3916 7.09863ZM15.7314 3.91211C16.3941 3.91222 16.9316 4.44645 16.9316 5.10547C16.9316 5.76453 16.3941 6.29872 15.7314 6.29883C15.0687 6.29883 14.5312 5.7646 14.5312 5.10547C14.5313 4.44639 15.0687 3.91211 15.7314 3.91211Z" fill="white"/>
</svg>
