<svg width="19" height="19" viewBox="0 0 19 19" fill="none" xmlns="http://www.w3.org/2000/svg">
<g clip-path="url(#clip0_397_3753)">
<path d="M13.7317 2.30859H6.2335C4.16291 2.30859 2.48438 3.97748 2.48438 6.03615V13.4913C2.48438 15.5499 4.16291 17.2188 6.2335 17.2188H13.7317C15.8023 17.2188 17.4809 15.5499 17.4809 13.4913V6.03615C17.4809 3.97748 15.8023 2.30859 13.7317 2.30859Z" stroke="black" stroke-width="2" stroke-linecap="round" stroke-linejoin="round"/>
<path d="M12.9818 9.29463C13.0743 9.91508 12.9677 10.5487 12.6772 11.1055C12.3866 11.6622 11.9269 12.1137 11.3634 12.3957C10.7999 12.6777 10.1613 12.7759 9.53843 12.6762C8.91558 12.5766 8.34019 12.2842 7.8941 11.8407C7.44802 11.3972 7.15395 10.8251 7.05372 10.2058C6.9535 9.58654 7.05222 8.95162 7.33585 8.39135C7.61948 7.83109 8.07357 7.374 8.63354 7.08512C9.19351 6.79623 9.83084 6.69025 10.4549 6.78226C11.0914 6.87611 11.6807 7.17102 12.1358 7.62342C12.5908 8.07583 12.8874 8.66175 12.9818 9.29463Z" stroke="black" stroke-width="2" stroke-linecap="round" stroke-linejoin="round"/>
<ellipse cx="14.1055" cy="5.66124" rx="1.125" ry="1.11827" fill="black"/>
</g>
<defs>
<clipPath id="clip0_397_3753">
<rect width="17.9958" height="17.8923" fill="white" transform="translate(0.984375 0.816406)"/>
</clipPath>
</defs>
</svg>
