<svg width="58" height="58" viewBox="0 0 58 58" fill="none" xmlns="http://www.w3.org/2000/svg">
<path d="M0.875 29C0.875 32.6934 1.60247 36.3507 3.01589 39.763C4.4293 43.1753 6.50097 46.2757 9.11262 48.8874C11.7243 51.499 14.8247 53.5707 18.237 54.9841C21.6493 56.3975 25.3066 57.125 29 57.125C32.6934 57.125 36.3507 56.3975 39.763 54.9841C43.1753 53.5707 46.2757 51.499 48.8874 48.8874C51.499 46.2757 53.5707 43.1753 54.9841 39.763C56.3975 36.3507 57.125 32.6934 57.125 29C57.125 25.3066 56.3975 21.6493 54.9841 18.237C53.5707 14.8247 51.499 11.7243 48.8874 9.11262C46.2757 6.50097 43.1753 4.4293 39.763 3.01589C36.3507 1.60247 32.6934 0.875 29 0.875C25.3066 0.875 21.6493 1.60247 18.237 3.01589C14.8247 4.4293 11.7243 6.50097 9.11262 9.11262C6.50097 11.7243 4.4293 14.8247 3.01589 18.237C1.60247 21.6493 0.875 25.3066 0.875 29Z" fill="#BBE4FF"/>
<path d="M39.4512 14.1869V42.9872C39.4512 43.6505 38.9276 44.1741 38.2643 44.1741H20.1812V40.0548C20.1812 39.3915 19.6576 38.8679 18.9943 38.8679H14.875V14.1869C14.875 13.5236 15.3986 13 16.0619 13H38.2992C38.9276 13.0349 39.4512 13.5586 39.4512 14.1869Z" fill="white"/>
<path d="M20.1812 44.1742H16.0619C15.3986 44.1742 14.875 43.6505 14.875 42.9872V38.9028H18.9943C19.6576 38.9028 20.1812 39.4265 20.1812 40.0898V44.1742Z" fill="#E6E9EE"/>
<path d="M20.1812 44.1742H16.0619C15.3986 44.1742 14.875 43.6505 14.875 42.9872V38.9028L20.1812 44.1742Z" fill="#CED5E0"/>
<path d="M32.9232 20.0867H30.7239V24.206H32.9232V20.0867Z" fill="#CED5E0"/>
<path d="M29.8162 16.8401H27.6169V24.206H29.8162V16.8401Z" fill="#FFD05B"/>
<path d="M26.7094 18.2017H24.5101V24.1712H26.7094V18.2017Z" fill="#84DBFF"/>
<path d="M23.6373 15.6182H21.438V24.171H23.6373V15.6182Z" fill="#FF7058"/>
<path d="M33.6912 24.2058H20.6351V24.8342H33.6912V24.2058Z" fill="#324A5E"/>
<path d="M36.3793 31.9211H17.982V32.8288H36.3793V31.9211Z" fill="#E6E9EE"/>
<path d="M36.3793 29.7217H17.982V30.6293H36.3793V29.7217Z" fill="#E6E9EE"/>
<path d="M36.3792 27.5225H17.982V28.4301H36.3792V27.5225Z" fill="#E6E9EE"/>
<path d="M36.3793 34.0854H17.982V34.9931H36.3793V34.0854Z" fill="#E6E9EE"/>
<path d="M36.3793 36.2847H23.1137V37.1923H36.3793V36.2847Z" fill="#E6E9EE"/>
<path d="M36.7632 41.6955C40.4264 41.6955 43.396 38.7259 43.396 35.0627C43.396 31.3995 40.4264 28.4299 36.7632 28.4299C33.1 28.4299 30.1304 31.3995 30.1304 35.0627C30.1304 38.7259 33.1 41.6955 36.7632 41.6955Z" fill="#0099FF"/>
<path d="M40.9524 31.8163C40.6033 31.4672 40.0098 31.4672 39.6258 31.8163L35.1225 36.3545L33.9007 35.1327C33.5516 34.7836 32.9581 34.7836 32.5741 35.1327C32.225 35.4818 32.225 36.0752 32.5741 36.4592L33.7959 37.681C33.7959 37.681 34.0752 37.9603 34.4592 38.3443C34.8083 38.6934 35.4018 38.6934 35.7858 38.3443L40.9524 33.1428C41.3364 32.7588 41.3364 32.2003 40.9524 31.8163Z" fill="white"/>
</svg>
