<svg width="58" height="58" viewBox="0 0 58 58" fill="none" xmlns="http://www.w3.org/2000/svg">
<path d="M0.875 29C0.875 32.6934 1.60247 36.3507 3.01589 39.763C4.4293 43.1753 6.50097 46.2757 9.11262 48.8874C11.7243 51.499 14.8247 53.5707 18.237 54.9841C21.6493 56.3975 25.3066 57.125 29 57.125C32.6934 57.125 36.3507 56.3975 39.763 54.9841C43.1753 53.5707 46.2757 51.499 48.8874 48.8874C51.499 46.2757 53.5707 43.1753 54.9841 39.763C56.3975 36.3507 57.125 32.6934 57.125 29C57.125 25.3066 56.3975 21.6493 54.9841 18.237C53.5707 14.8247 51.499 11.7243 48.8874 9.11262C46.2757 6.50097 43.1753 4.4293 39.763 3.01589C36.3507 1.60247 32.6934 0.875 29 0.875C25.3066 0.875 21.6493 1.60247 18.237 3.01589C14.8247 4.4293 11.7243 6.50097 9.11262 9.11262C6.50097 11.7243 4.4293 14.8247 3.01589 18.237C1.60247 21.6493 0.875 25.3066 0.875 29Z" fill="#BBE4FF"/>
<path d="M37.7707 16.5H15.881C15.7286 16.5 15.6067 16.5 15.4542 16.5305V42.17C15.6067 42.17 15.7286 42.2005 15.881 42.2005H37.7707C41.1243 42.2005 43.8376 42.2005 43.8376 36.6824V22.0486C43.8681 16.5 41.1243 16.5 37.7707 16.5Z" fill="#0099FF"/>
<g opacity="0.5">
<path d="M37.7707 16.5H15.881C15.7286 16.5 15.6067 16.5 15.4542 16.5305V42.17C15.6067 42.17 15.7286 42.2005 15.881 42.2005H37.7707C41.1243 42.2005 43.8376 42.2005 43.8376 36.6824V22.0486C43.8681 16.5 41.1243 16.5 37.7707 16.5Z" fill="#185275"/>
</g>
<path d="M37.7707 42.7187H15.881C15.7591 42.7187 15.6067 42.7187 15.4847 42.6882C15.1798 42.6577 14.9055 42.4138 14.9055 42.109V16.4999C14.9055 16.195 15.1494 15.9511 15.4542 15.9206H15.5152C15.6371 15.9206 15.7591 15.8901 15.881 15.8901H37.7707C41.0328 15.8901 44.4169 15.8901 44.4169 21.9875V36.6213C44.4169 42.7187 41.0633 42.7187 37.7707 42.7187ZM16.064 41.5907H37.8012C41.1243 41.5907 43.3193 41.5907 43.3193 36.6518V22.018C43.3193 17.0791 41.1243 17.0791 37.8012 17.0791H16.064V41.5907Z" fill="#185275"/>
<path d="M37.7707 14.6096H15.881C15.7286 14.6096 15.6067 14.6096 15.4542 14.6401V40.2797C15.6067 40.2797 15.7286 40.3102 15.881 40.3102H37.7707C41.1243 40.3102 43.8376 40.3102 43.8376 34.792V20.1583C43.8681 14.6096 41.1243 14.6096 37.7707 14.6096Z" fill="#0099FF"/>
<path d="M37.7707 40.8286H15.881C15.7591 40.8286 15.6371 40.8286 15.5152 40.7981H15.4542C15.1494 40.7676 14.9055 40.5237 14.9055 40.2188V14.6097C14.9055 14.3049 15.1494 14.061 15.4542 14.0305H15.5152C15.6371 14.0305 15.7591 14 15.881 14H37.7707C41.0328 14 44.4169 14 44.4169 20.0974V34.7312C44.4169 40.8286 41.0633 40.8286 37.7707 40.8286ZM16.064 39.7005H37.8012C41.1243 39.7005 43.3193 39.7005 43.3193 34.7616V20.1279C43.3193 15.189 41.1243 15.189 37.8012 15.189H16.064V39.7005Z" fill="#185275"/>
<path d="M40.4231 37.0176H38.4109C38.106 37.0176 37.8317 36.7737 37.8317 36.4383C37.8317 36.1334 38.0756 35.8591 38.4109 35.8591H39.8438V34.4262C39.8438 34.1213 40.0877 33.8469 40.4231 33.8469C40.7584 33.8469 41.0023 34.0908 41.0023 34.4262V36.4383C41.0023 36.7737 40.7584 37.0176 40.4231 37.0176Z" fill="#185275"/>
<path d="M34.2342 37.0176H30.0575C29.7526 37.0176 29.4782 36.7737 29.4782 36.4384C29.4782 36.1335 29.7221 35.8591 30.0575 35.8591H34.2342C34.5391 35.8591 34.8134 36.103 34.8134 36.4384C34.8134 36.7737 34.5696 37.0176 34.2342 37.0176ZM25.8503 37.0176H21.6736C21.3687 37.0176 21.0943 36.7737 21.0943 36.4384C21.0943 36.1335 21.3382 35.8591 21.6736 35.8591H25.8503C26.1551 35.8591 26.4295 36.103 26.4295 36.4384C26.4295 36.7737 26.1856 37.0176 25.8503 37.0176Z" fill="#185275"/>
<path d="M17.4663 37.0176H15.4542C15.1493 37.0176 14.8749 36.7737 14.8749 36.4383V34.4262C14.8749 34.1213 15.1188 33.8469 15.4542 33.8469C15.7895 33.8469 16.0334 34.0908 16.0334 34.4262V35.8591H17.4663C17.7712 35.8591 18.0456 36.103 18.0456 36.4383C18.0456 36.7737 17.8017 37.0176 17.4663 37.0176Z" fill="#185275"/>
<path d="M15.4847 30.158C15.1798 30.158 14.9055 29.9141 14.9055 29.5788V24.7008C14.9055 24.396 15.1494 24.1216 15.4847 24.1216C15.8201 24.1216 16.064 24.3655 16.064 24.7008V29.5788C16.064 29.8836 15.7896 30.158 15.4847 30.158Z" fill="#185275"/>
<path d="M15.4847 20.4023C15.1798 20.4023 14.9055 20.1584 14.9055 19.8231V17.8109C14.9055 17.5061 15.1494 17.2317 15.4847 17.2317H17.4969C17.8017 17.2317 18.0761 17.4756 18.0761 17.8109C18.0761 18.1158 17.8322 18.3902 17.4969 18.3902H16.064V19.8231C16.064 20.128 15.7896 20.4023 15.4847 20.4023Z" fill="#185275"/>
<path d="M34.2342 18.3902H30.0575C29.7526 18.3902 29.4782 18.1463 29.4782 17.8109C29.4782 17.5061 29.7221 17.2317 30.0575 17.2317H34.2342C34.5391 17.2317 34.8134 17.4756 34.8134 17.8109C34.8134 18.1463 34.5696 18.3902 34.2342 18.3902ZM25.8503 18.3902H21.6736C21.3687 18.3902 21.0943 18.1463 21.0943 17.8109C21.0943 17.5061 21.3382 17.2317 21.6736 17.2317H25.8503C26.1551 17.2317 26.4295 17.4756 26.4295 17.8109C26.4295 18.1463 26.1856 18.3902 25.8503 18.3902Z" fill="#185275"/>
<path d="M40.4231 20.4023C40.1182 20.4023 39.8438 20.1584 39.8438 19.8231V18.3902H38.4109C38.106 18.3902 37.8317 18.1463 37.8317 17.8109C37.8317 17.5061 38.0756 17.2317 38.4109 17.2317H40.4231C40.7279 17.2317 41.0023 17.4756 41.0023 17.8109V19.8231C41.0023 20.128 40.7584 20.4023 40.4231 20.4023Z" fill="#185275"/>
<path d="M40.4231 30.158C40.1182 30.158 39.8438 29.9141 39.8438 29.5788V24.7008C39.8438 24.396 40.0877 24.1216 40.4231 24.1216C40.7584 24.1216 41.0023 24.3655 41.0023 24.7008V29.5788C41.0023 29.8836 40.7584 30.158 40.4231 30.158Z" fill="#185275"/>
<path d="M43.8681 30.7983H38.35C36.8257 30.7983 35.5757 29.5483 35.5757 28.024V26.2252C35.5757 24.7009 36.8257 23.4509 38.35 23.4509H43.8681C44.173 23.4509 44.4474 23.6948 44.4474 24.0302V30.219C44.4169 30.5239 44.173 30.7983 43.8681 30.7983ZM38.35 24.5789C37.4354 24.5789 36.7037 25.3106 36.7037 26.2252V28.024C36.7037 28.9386 37.4354 29.6703 38.35 29.6703H43.2889V24.5789H38.35Z" fill="#185275"/>
<path d="M43.8681 23.9998H38.3499C37.1304 23.9998 36.1548 25.0058 36.1548 26.1948V27.9936C36.1548 29.213 37.1609 30.1886 38.3499 30.1886H43.8681V23.9998Z" fill="#FFDA8E"/>
<path d="M43.8681 30.7983H38.35C36.8257 30.7983 35.5757 29.5483 35.5757 28.024V26.2252C35.5757 24.7009 36.8257 23.4509 38.35 23.4509H43.8681C44.173 23.4509 44.4474 23.6948 44.4474 24.0302V30.219C44.4169 30.5239 44.173 30.7983 43.8681 30.7983ZM38.35 24.5789C37.4354 24.5789 36.7037 25.3106 36.7037 26.2252V28.024C36.7037 28.9386 37.4354 29.6703 38.35 29.6703H43.2889V24.5789H38.35Z" fill="#185275"/>
<path d="M39.1425 28.6032C39.9676 28.6032 40.6364 27.9344 40.6364 27.1093C40.6364 26.2843 39.9676 25.6155 39.1425 25.6155C38.3175 25.6155 37.6487 26.2843 37.6487 27.1093C37.6487 27.9344 38.3175 28.6032 39.1425 28.6032Z" fill="white"/>
<path d="M39.1426 29.1826C38.0146 29.1826 37.0695 28.268 37.0695 27.1095C37.0695 25.9815 37.9841 25.0364 39.1426 25.0364C40.2707 25.0364 41.2157 25.951 41.2157 27.1095C41.2157 28.268 40.2707 29.1826 39.1426 29.1826ZM39.1426 26.1949C38.6244 26.1949 38.228 26.6217 38.228 27.1095C38.228 27.6278 38.6548 28.0241 39.1426 28.0241C39.6609 28.0241 40.0572 27.5973 40.0572 27.1095C40.0572 26.5912 39.6609 26.1949 39.1426 26.1949Z" fill="#185275"/>
</svg>
