<svg width="58" height="58" viewBox="0 0 58 58" fill="none" xmlns="http://www.w3.org/2000/svg">
<path d="M0.875 29C0.875 32.6934 1.60247 36.3507 3.01589 39.763C4.4293 43.1753 6.50097 46.2757 9.11262 48.8874C11.7243 51.499 14.8247 53.5707 18.237 54.9841C21.6493 56.3975 25.3066 57.125 29 57.125C32.6934 57.125 36.3507 56.3975 39.763 54.9841C43.1753 53.5707 46.2757 51.499 48.8874 48.8874C51.499 46.2757 53.5707 43.1753 54.9841 39.763C56.3975 36.3507 57.125 32.6934 57.125 29C57.125 25.3066 56.3975 21.6493 54.9841 18.237C53.5707 14.8247 51.499 11.7243 48.8874 9.11262C46.2757 6.50097 43.1753 4.4293 39.763 3.01589C36.3507 1.60247 32.6934 0.875 29 0.875C25.3066 0.875 21.6493 1.60247 18.237 3.01589C14.8247 4.4293 11.7243 6.50097 9.11262 9.11262C6.50097 11.7243 4.4293 14.8247 3.01589 18.237C1.60247 21.6493 0.875 25.3066 0.875 29Z" fill="#BBE4FF"/>
<path d="M44.8572 33.894V28.6654L41.5681 28.0069C41.2911 26.715 40.8233 25.4591 40.1971 24.2896L42.5217 22.3212L38.9844 17.9599L36.6598 19.9282C35.6522 19.0862 34.5403 18.3845 33.3492 17.8735V14.4765L28.3436 13.5337V16.9127C27.1561 16.9703 26.0406 17.2366 25.033 17.6828L22.7084 14.8579L19.1711 17.7835L21.4957 20.6083C20.8696 21.5116 20.3982 22.5551 20.1247 23.7103L16.8356 23.0517V28.1292L20.1247 28.8057C20.4017 30.0724 20.8696 31.3067 21.4957 32.4654L19.1711 34.3438L22.7084 38.7052L25.033 36.8268C26.0406 37.6832 27.1525 38.4029 28.3436 38.9427V42.3217L33.3492 43.4121V40.0151C34.5367 39.9827 35.6522 39.738 36.6598 39.3026L38.9844 42.2138L42.5217 39.2882L40.1971 36.377C40.8233 35.4594 41.2947 34.3978 41.5681 33.2175L44.8572 33.894ZM30.8446 32.8073C28.502 32.3215 26.602 29.9789 26.602 27.5751C26.602 25.1713 28.502 23.5987 30.8446 24.0665C33.1872 24.5343 35.0872 26.8733 35.0872 29.2987C35.0908 31.7205 33.1908 33.2931 30.8446 32.8073Z" fill="#185275"/>
<path d="M19.869 39.0218L19.5523 39.7703L22.7118 38.7051L22.0713 37.4349L19.869 39.0218ZM13.6868 24.0988L17.4616 25.2935L16.8499 23.0445L13.6868 24.0988ZM30.0456 42.3864L30.1643 44.4484L33.3706 43.394L30.0456 42.3864ZM20.3548 17.2473L22.719 14.8687L19.5451 15.9122L20.3548 17.2473Z" fill="#185275"/>
<path d="M41.6976 34.9485V29.7198L38.4085 29.0613C38.1315 27.7695 37.6636 26.5136 37.0375 25.3441L39.3621 23.3757L35.8248 19.0107L33.5002 20.9791C32.4926 20.137 31.3807 19.4353 30.1896 18.9243V15.5273L25.184 14.5881V17.9671C23.9965 18.0247 22.881 18.291 21.8734 18.7372L19.5488 15.9124L16.0115 18.838L18.3361 21.6628C17.7099 22.566 17.2385 23.6096 16.9651 24.7647L13.676 24.1062V29.1837L16.9651 29.8602C17.2421 31.1269 17.7099 32.3611 18.3361 33.5199L16.0115 35.3983L19.5488 39.7597L21.8734 37.8812C22.881 38.7377 23.9929 39.4574 25.184 39.9972V43.3762L30.1896 44.4665V41.0695C31.3771 41.0371 32.4926 40.7924 33.5002 40.357L35.8248 43.2682L39.3621 40.3426L37.0375 37.4314C37.6636 36.5138 38.1351 35.4523 38.4085 34.2719L41.6976 34.9485ZM27.685 33.8617C25.3424 33.3759 23.4424 31.0333 23.4424 28.6295C23.4424 26.2257 25.3424 24.6531 27.685 25.121C30.0276 25.5888 31.9276 27.9278 31.9276 30.3532C31.9312 32.775 30.0312 34.3475 27.685 33.8617Z" fill="#0099FF"/>
<path d="M25.1768 14.5773L30.1751 15.5489L33.3346 14.4837L28.3614 13.5481L25.1768 14.5773ZM35.8283 43.2645L38.9986 42.1994L42.5215 39.299L39.3621 40.3498L35.8283 43.2645ZM41.6795 34.9664L44.875 33.8904L44.839 28.6798L41.7155 29.7234L41.6795 34.9664ZM42.5359 22.35L38.9878 17.9851L35.8283 19.025L39.3405 23.39L42.5359 22.35Z" fill="#297BAC"/>
</svg>
