<svg width="16" height="13" viewBox="0 0 16 13" fill="none" xmlns="http://www.w3.org/2000/svg">
<path d="M15.255 2.13815C14.7194 2.4064 14.1838 2.49582 13.559 2.58524C14.1838 2.22756 14.6302 1.69106 14.8087 0.975711C14.2731 1.33338 13.6483 1.51222 12.9341 1.69106C12.3986 1.15455 11.5952 0.796875 10.7918 0.796875C9.27428 0.796875 7.93531 2.13815 7.93531 3.74767C7.93531 4.01592 7.93531 4.19476 8.02458 4.3736C5.61443 4.28418 3.38281 3.12174 1.95457 1.33338C1.68677 1.78047 1.59751 2.22756 1.59751 2.85349C1.59751 3.83709 2.1331 4.73127 2.93648 5.26778C2.49016 5.26778 2.04383 5.08894 1.59751 4.9101C1.59751 6.34079 2.57942 7.50323 3.9184 7.77148C3.6506 7.8609 3.38281 7.8609 3.11501 7.8609C2.93648 7.8609 2.75795 7.8609 2.57942 7.77148C2.93648 8.93392 4.00766 9.8281 5.34663 9.8281C4.36472 10.6329 3.11501 11.0799 1.68677 11.0799C1.41898 11.0799 1.24045 11.0799 0.972656 11.0799C2.31163 11.8847 3.82913 12.4212 5.4359 12.4212C10.7918 12.4212 13.7375 7.95032 13.7375 4.10534C13.7375 4.01592 13.7375 3.83709 13.7375 3.74767C14.3624 3.30058 14.898 2.76407 15.255 2.13815Z" fill="black"/>
</svg>
